<svg width="157" height="272" viewBox="0 0 157 272" fill="none" xmlns="http://www.w3.org/2000/svg">
<g clip-path="url(#clip0_1409_4086)">
<path d="M72.5225 260.345C72.3707 260.189 72.1987 260.111 72.004 260.111H64.5482C64.3433 260.111 64.1688 260.186 64.0297 260.338C63.8881 260.489 63.8172 260.66 63.8122 260.854L63.8071 271.257C63.8147 271.461 63.8881 271.637 64.0272 271.781C64.1663 271.924 64.3433 272 64.5608 272H66.7965C67.0014 272 67.1784 271.927 67.3251 271.781C67.4718 271.635 67.5426 271.461 67.535 271.254L67.5426 269.296C67.5426 269.145 67.6666 269.021 67.8183 269.021H72.0166C72.2215 269.021 72.396 268.948 72.5452 268.802C72.6919 268.656 72.7602 268.482 72.7551 268.275V260.849C72.7551 260.665 72.6767 260.496 72.525 260.34L72.5225 260.345ZM68.7516 268.291H67.8107C67.659 268.291 67.535 268.167 67.535 268.016V261.116C67.535 260.965 67.659 260.842 67.8107 260.842H68.749C68.9008 260.842 69.0247 260.965 69.0247 261.116V268.016C69.0247 268.167 68.9008 268.291 68.749 268.291H68.7516Z" fill="white"/>
<path d="M78.2511 260.842H82.9021C83.0943 260.842 83.1955 260.746 83.2005 260.554L83.1955 260.396C83.2006 260.207 83.1019 260.108 82.8971 260.108H74.9885C74.7836 260.108 74.6091 260.184 74.47 260.335C74.3284 260.486 74.2551 260.658 74.25 260.852V271.254C74.2551 271.458 74.3284 271.635 74.4675 271.778C74.6066 271.922 74.7862 271.997 75.0011 271.997H82.4595C82.6644 271.997 82.8414 271.924 82.9881 271.778C83.1348 271.632 83.2056 271.458 83.198 271.254V265.438C83.198 265.257 83.1196 265.088 82.9679 264.932C82.8161 264.775 82.6492 264.697 82.4646 264.697H80.9269C80.9117 264.697 80.894 264.697 80.8788 264.697H79.6901C79.508 264.7 79.3133 264.697 79.1565 264.806C78.9997 264.914 78.944 265.093 78.944 265.226V266.333C78.944 266.489 79.0199 266.617 79.1717 266.718C79.3234 266.819 79.4954 266.872 79.6901 266.874H79.9102C80.0493 266.874 80.1631 266.988 80.1707 267.134V269.513C80.1707 269.664 80.0467 269.788 79.895 269.788H78.2561C78.1044 269.788 77.9804 269.664 77.9804 269.513V261.116C77.9804 260.965 78.1018 260.842 78.2536 260.842H78.2511Z" fill="white"/>
<path d="M93.1929 269.681C93.1929 269.523 93.1575 269.354 93.0083 269.246C92.8565 269.137 92.6416 269.115 92.4468 269.112H88.8631C88.6177 269.087 88.4255 268.875 88.4154 268.613V260.857C88.4104 260.673 88.3345 260.504 88.1827 260.348C88.031 260.191 87.859 260.113 87.6643 260.113H85.426C85.2211 260.113 85.0466 260.189 84.9075 260.34C84.7659 260.491 84.6926 260.663 84.6875 260.857V271.259C84.6926 271.463 84.7659 271.64 84.905 271.783C85.0441 271.927 85.2237 272.002 85.4386 272.002H92.897C93.0918 272.002 93.1904 271.907 93.1954 271.713V271.45C93.1954 271.45 93.1954 271.428 93.1954 271.418V269.684L93.1929 269.681Z" fill="white"/>
<path d="M58.969 265.461H1.22165C0.887813 265.461 0.617188 265.731 0.617188 266.063C0.617188 266.396 0.887813 266.665 1.22165 266.665H58.969C59.3028 266.665 59.5734 266.396 59.5734 266.063C59.5734 265.731 59.3028 265.461 58.969 265.461Z" fill="white"/>
<path d="M155.647 265.461H97.8994C97.5655 265.461 97.2949 265.731 97.2949 266.063C97.2949 266.396 97.5655 266.665 97.8994 266.665H155.647C155.981 266.665 156.251 266.396 156.251 266.063C156.251 265.731 155.981 265.461 155.647 265.461Z" fill="white"/>
<path d="M75.1378 237.252L66.6121 221.432H64.9555H58.7719H57.31L43.9917 245.364H52.2063L61.8119 227.331L66.9207 237.252H75.1378Z" fill="white"/>
<path d="M48.5719 221.432H42.0721H38.5111L24.9955 234.788L11.4773 221.432H7.9745H1.4165V245.364H7.9745V227.732L24.9955 244.084L42.0721 227.679V243.179L48.6275 231.288V221.432H48.5719Z" fill="white"/>
<path d="M81.9004 221.125V237.197C81.9004 238.528 80.8179 239.606 79.4826 239.606H67.6514L70.2361 245.233H82.0243C85.99 245.233 89.2045 242.03 89.2045 238.079V221.125H81.8979H81.9004Z" fill="white"/>
<path d="M121.8 223.143C119.39 221.231 114.493 221.175 108.16 221.067C101.83 221.175 96.9335 221.231 94.5207 223.143C91.9612 224.945 91.8854 228.602 91.7412 233.331C91.8854 238.061 91.9612 241.72 94.5207 243.52C96.931 245.432 101.827 245.488 108.16 245.596C114.491 245.488 119.387 245.432 121.8 243.52C124.359 241.718 124.435 238.061 124.579 233.331C124.435 228.602 124.359 224.943 121.8 223.143ZM115.922 238.868C114.569 239.863 111.719 239.727 108.16 239.782C104.604 239.727 101.837 239.843 100.484 238.85C99.0453 237.915 99.02 235.867 98.9391 233.41C99.02 230.953 98.972 228.904 100.409 227.969C101.762 226.974 104.604 227.092 108.16 227.037C111.716 227.092 114.716 226.883 116.071 227.876C117.51 228.811 117.3 230.953 117.384 233.41C117.303 235.867 117.361 237.933 115.922 238.87V238.868Z" fill="white"/>
<path d="M148.995 221.46H127.227V233.649H134.561V227.311H146.443C147.852 227.311 148.995 228.45 148.995 229.854V231.104C148.995 232.507 147.852 233.646 146.443 233.646H141.868V239.498L148.687 245.397H156.352L149.552 239.498H149.815C153.358 239.498 156.249 236.673 156.319 233.145C156.34 232.177 156.352 231.222 156.352 230.388C156.352 229.597 156.34 228.71 156.322 227.808C156.251 224.28 153.358 221.458 149.817 221.458H148.995V221.46Z" fill="white"/>
<path d="M113.669 18.6047L112.25 21.1247L114.273 0L0 23.5892V150.677C0 159.57 4.82303 167.77 12.6127 172.117L78.4279 208.835L144.273 172.543C152.124 168.216 156.997 159.981 156.997 151.043V31.2044L113.666 18.6047H113.669ZM143.722 150.761C143.722 155.017 141.024 158.731 136.752 161.12C132.48 163.509 78.4987 193.486 78.4987 193.486C78.4987 193.486 70.9392 189.343 64.9831 185.926C59.0271 182.509 57.1707 180.997 53.1241 176.855C49.0775 172.712 45.5368 165.767 43.6247 161.735C41.7127 157.703 38.8472 146.446 38.8472 146.446L49.5252 151.431C49.5252 151.431 50.7619 144.264 47.9521 131.551C45.1422 118.84 21.1156 94.4525 21.1156 94.4525V66.9019L21.4241 66.4811C21.4241 66.4811 20.7211 65.2766 19.2036 63.82C17.6861 62.3635 15.7741 61.8041 14.9597 61.4967C14.1454 61.1892 13.8924 60.7407 13.5839 59.5916C13.2753 58.4425 14.201 57.4647 14.8484 57.0162C15.4959 56.5676 19.1479 54.2443 19.1479 54.2443H23.842V50.9683H22.4661C22.4661 50.9683 20.415 49.2321 19.7954 48.2796C19.1783 47.327 19.7954 45.6487 19.7954 45.6487L40.0106 30.64V28.8105L100.56 16.2662L107.753 66.1434L110.975 31.7966L143.722 41.0549V150.756V150.761Z" fill="white"/>
<path d="M78.8376 158.126L81.1517 165.369L88.7795 165.323L82.5806 169.756L84.9808 176.971L78.8376 172.465L72.6918 176.971L75.0919 169.756L68.8931 165.323L76.5234 165.369L78.8376 158.126Z" fill="white"/>
<path d="M55.3171 108.708V66.345C55.3171 66.345 57.9726 61.3883 64.0273 59.458L59.5028 56.1115H52.6387C52.5173 56.1115 52.4212 56.0132 52.4212 55.8948V47.579C52.4212 47.3598 52.6008 47.1809 52.8208 47.1809H54.8795L55.833 45.8654C55.9468 45.7067 55.9013 45.4849 55.7344 45.3841L40.0184 35.957L24.0117 45.7772C23.8473 45.878 23.822 46.1074 23.9585 46.2409L25.4431 47.6974H28.3339C28.4907 47.6974 28.6197 47.826 28.6197 47.9822V56.4618H21.3561L16.8188 59.4857C16.8188 59.4857 21.9049 60.5491 25.6151 66.4004H33.7791C34.0952 66.4004 34.1661 66.844 33.8651 66.9397L25.519 69.6335V91.7107L55.3196 108.705L55.3171 108.708Z" fill="white"/>
<path d="M0.617188 253.043C0.617188 250.996 2.19283 249.532 4.31476 249.532C5.49332 249.532 6.47462 249.958 7.11702 250.734L6.10537 251.664C5.6476 251.14 5.07349 250.868 4.39316 250.868C3.11848 250.868 2.21306 251.76 2.21306 253.04C2.21306 254.32 3.11848 255.212 4.39316 255.212C5.07349 255.212 5.6476 254.94 6.10537 254.408L7.11702 255.338C6.47462 256.124 5.4908 256.55 4.30464 256.55C2.19283 256.55 0.617188 255.086 0.617188 253.04V253.043Z" fill="white"/>
<path d="M16.7354 253.043C16.7354 251.027 18.311 249.532 20.4633 249.532C22.6155 249.532 24.1912 251.016 24.1912 253.043C24.1912 255.069 22.6054 256.553 20.4633 256.553C18.3211 256.553 16.7354 255.058 16.7354 253.043ZM22.5953 253.043C22.5953 251.752 21.6798 250.87 20.4633 250.87C19.2468 250.87 18.3312 251.752 18.3312 253.043C18.3312 254.333 19.2468 255.215 20.4633 255.215C21.6798 255.215 22.5953 254.333 22.5953 253.043Z" fill="white"/>
<path d="M40.6531 252.113C40.6531 253.625 39.515 254.567 37.6941 254.567H36.3208V256.44H34.7451V249.651H37.6941C39.515 249.651 40.6531 250.591 40.6531 252.113ZM39.0573 252.113C39.0573 251.367 38.5717 250.931 37.6081 250.931H36.3233V253.287H37.6081C38.5717 253.287 39.0573 252.851 39.0573 252.113Z" fill="white"/>
<path d="M56.1512 255.177V256.437H50.8755V249.648H56.0248V250.908H52.4435V252.382H55.6075V253.604H52.4435V255.174H56.1512V255.177Z" fill="white"/>
<path d="M72.8969 249.648V256.437H71.602L68.2054 252.317V256.437H66.6475V249.648H67.9525L71.339 253.768V249.648H72.8969Z" fill="white"/>
<path d="M89.7533 249.648V256.437H88.1776V253.655H85.082V256.437H83.5063V249.648H85.082V252.324H88.1776V249.648H89.7533Z" fill="white"/>
<path d="M105.108 254.983H101.944L101.339 256.437H99.7231L102.761 249.648H104.319L107.364 256.437H105.71L105.105 254.983H105.108ZM104.612 253.791L103.532 251.193L102.452 253.791H104.612Z" fill="white"/>
<path d="M121.856 252.937H123.297V255.691C122.549 256.253 121.517 256.555 120.543 256.555C118.401 256.555 116.825 255.091 116.825 253.045C116.825 250.999 118.401 249.535 120.573 249.535C121.77 249.535 122.764 249.943 123.424 250.709L122.412 251.639C121.916 251.115 121.342 250.873 120.649 250.873C119.326 250.873 118.421 251.755 118.421 253.045C118.421 254.335 119.326 255.217 120.632 255.217C121.059 255.217 121.459 255.139 121.858 254.927V252.939L121.856 252.937Z" fill="white"/>
<path d="M139.248 255.177V256.437H133.972V249.648H139.121V250.908H135.54V252.382H138.704V253.604H135.54V255.174H139.248V255.177Z" fill="white"/>
<path d="M155.857 249.648V256.437H154.562L151.165 252.317V256.437H149.607V249.648H150.912L154.299 253.768V249.648H155.857Z" fill="white"/>
<path d="M101.721 106.43L128.08 91.0129V152.835L113.223 144.284V117.145L101.721 123.752L65.5269 102.736V85.2246L101.721 106.43Z" fill="white"/>
<path d="M93.6608 128.512L65.5269 112.029V129.54L78.7263 137.204L93.6608 128.512Z" fill="white"/>
<path d="M128.08 64.5054V81.6788L101.645 97.0227L86.9766 88.3793L128.08 64.5054Z" fill="white"/>
</g>
<defs>
<clipPath id="clip0_1409_4086">
<rect width="157" height="272" fill="white"/>
</clipPath>
</defs>
</svg>
