<?xml version="1.0" encoding="UTF-8"?><svg id="Layer_1" xmlns="http://www.w3.org/2000/svg" viewBox="0 0 434.86 446"><defs><style>.cls-1{fill-rule:evenodd;}.cls-1,.cls-2{fill:#d8ff00;stroke-width:0px;}</style></defs><path class="cls-1" d="m434.71,192.94c.04-25.92.08-50.76.11-73.66l-48.65-14.47v88.13h48.54Z"/><path class="cls-1" d="m356.82,192.89c.05-44.7.13-88.05.18-126.03l-48.65-14.47v140.5h48.47Z"/><path class="cls-1" d="m.14,416.25l48.51-37.6V104.81L0,119.28c.1,86.9.38,201.83.14,296.97Z"/><path class="cls-2" d="m124.83,446H.02l298.48-234.04h136.36v234.04h-135.92l-62.63-56.96h96.83v-106.86l-208.32,163.83Z"/><path class="cls-1" d="m76.06,357.34l48.49-37.59V52.4l-48.65,14.47c.1,84.93.37,196.63.16,290.47Z"/><path class="cls-1" d="m153.46,297.4l48.46-37.56V0l-48.65,15c.09,82.45.34,189.25.19,282.4Z"/><path class="cls-1" d="m279.41,203c.03-65.97.17-132.5.23-188L230.99,0v240.53l48.42-37.53Z"/></svg>