<?xml version="1.0" encoding="utf-8"?>
<!-- Generator: Adobe Illustrator 21.0.0, SVG Export Plug-In . SVG Version: 6.00 Build 0)  -->
<svg version="1.1" id="Layer_2_1_" xmlns="http://www.w3.org/2000/svg" xmlns:xlink="http://www.w3.org/1999/xlink" x="0px" y="0px" height="800px" width="800px"
	 viewBox="0 0 522 522" style="enable-background:new 0 0 522 522;" xml:space="preserve">
<style type="text/css">
	.st0{fill:none;}
	.st1{fill:url(#SVGID_1_);}
</style>
<g>
	<g>
		<polygon class="st0" points="226.8,127.7 231.4,98.9 224.4,98.9 222.7,110 213.5,110 215.2,98.9 207.7,98.9 203.2,127.7 
			210.7,127.7 212.6,116.3 221.7,116.3 219.8,127.7 		"/>
		<polygon class="st0" points="244,121.4 236,121.4 239.6,98.9 232.7,98.9 228.1,127.7 243,127.7 		"/>
		<g>
			<polygon class="st0" points="260.9,98.9 242.3,98.9 241.4,105.3 247.6,105.3 244.9,121.4 244.9,121.4 244,127.7 244,127.7 
				244,127.7 251.5,127.7 255,105.3 260,105.3 			"/>
			<polygon class="st0" points="280.8,98.9 271.1,116.4 266.9,98.9 262.2,98.9 261.9,98.9 260.7,106.4 266.4,127.7 272.1,127.7 
				288.9,98.9 			"/>
		</g>
	</g>
	<g>
		<path class="st0" d="M285.6,125.7c-0.2,1.5-1.7,2.8-3.2,2.8s-2.6-1.3-2.3-2.8c0.2-1.5,1.7-2.8,3.2-2.8S285.8,124.1,285.6,125.7z"
			/>
		<path class="st0" d="M299.5,120.7c-0.6,3.8-2.4,7.8-7,7.8c-4.5,0-5.1-3.9-4.5-7.8c0.6-3.8,2.4-7.8,7-7.8
			C299.5,112.9,300,116.8,299.5,120.7z M292.2,120.7c-0.1,0.9-0.6,4,0.9,4c1.4,0,2-3.1,2.1-4s0.6-4-0.9-4
			C292.9,116.6,292.4,119.9,292.2,120.7z"/>
		<path class="st0" d="M306.6,113.2l-0.3,1.8h0.1c1-1.3,2.1-2.2,3.8-2.3l-0.6,4c-0.2,0-0.4-0.1-0.6-0.1c-2.8,0-3.1,1.8-3.4,4
			l-1.2,7.5h-4.1l2.3-15L306.6,113.2L306.6,113.2z"/>
		<path class="st0" d="M312.7,130.2c-0.1,0.9,0,2.1,1.2,2.1c1.8,0,2-2.8,2.2-4.1l0.3-1.9h-0.1c-0.4,0.5-0.8,1.1-1.2,1.5
			c-0.5,0.4-1.1,0.7-1.8,0.7c-1.5,0-2.3-1.2-2.8-2.5c-0.5-1.5-0.4-3.4-0.2-5.1c0.4-2.6,1.7-8,5.4-8c1.4,0,2.2,0.9,2.5,2.1h0.1
			l0.3-1.8h4.1l-2.6,16.3c-0.7,4.4-2.9,6.2-6.6,6.2c-3.5,0-4.9-2-4.6-5.5H312.7L312.7,130.2z M317.5,120.6c0.1-0.8,0.6-4-0.8-4
			s-2,3.1-2.1,4s-0.6,4,0.9,4C316.8,124.6,317.4,121.4,317.5,120.6z"/>
	</g>
</g>
<g id="_x30_nG9y0.tif">
	<g>
		
			<linearGradient id="SVGID_1_" gradientUnits="userSpaceOnUse" x1="-142.8823" y1="868.5229" x2="188.4538" y2="868.5229" gradientTransform="matrix(1.5742 -4.564008e-02 -4.564008e-02 -1.5742 262.3573 1631.6393)">
			<stop  offset="0" style="stop-color:#00A8EC"/>
			<stop  offset="1" style="stop-color:#0F75BD"/>
		</linearGradient>
		<path class="st1" d="M376.3,348.3c-6.3-3.1-12.2-6-18.1-8.9c-11.6-5.8-23.3-11.4-34.9-17.3c-3.2-1.6-3.2-1.6-2.2-6.2
			c3.4-14,9.6-26.4,18.8-37.3c10.8-12.7,23.8-22.6,39.2-28.8c9.4-3.9,19.4-6.6,29.7-6.9c8.3-0.2,16.7-0.6,25,0.1
			c10.7,1,21.1,4,31.1,8.5c11.6,5.3,21.9,12.5,30.6,21.8c7.4,7.8,13.1,16.7,17.3,26.4c4,9,6.8,18.3,7.7,28.1
			c0.7,7.5,1.8,15,1.4,22.3c-1.1,20.6-7.2,39.8-19.9,56.3c-12.9,16.8-29.6,27.9-50,34.1c-12.9,3.8-26.2,4.9-39.5,4
			c-8.5-0.5-17-3-25.2-5.7c-10-3.3-19.8-7.6-29.3-12c-11.9-5.6-23.6-11.9-35.6-17.9c-14.8-7.6-29.6-14.9-44.3-22.5
			c-20.2-10.2-40.5-20.6-60.7-31.1c-25.2-12.8-50.5-25.8-75.9-38.6c-7.9-3.9-16.2-7.7-24.6-10.7c-10.3-3.6-20.9-3.8-31.1,0.7
			c-14.4,6.5-22.2,17.7-23.1,33.5c-0.8,11,2,20.8,9.1,29.2c7.1,8.4,16.5,12.7,27.5,13.4c8.9,0.4,17.7-0.7,25.7-4.8
			c10.8-5.5,16.3-14.7,18.7-26.2c0.7-3.5,0.9-7.1,1.3-10.7c0.3-2.1,1-2.4,2.9-1.5c16.8,8.4,33.8,16.9,50.8,25.2
			c2.4,1.2,2.9,2.8,2.4,5.2c-3.7,14.6-10.2,28-20.2,39.5c-10.8,12.4-23.8,21.9-38.8,27.9c-16.1,6.4-32.9,8.3-50.2,6.9
			c-12.1-1.1-23.6-3.7-34.5-8.7c-11.9-5.4-22.4-12.7-31.3-22.4C14.4,400.3,6.9,385,3,367.9c-1.1-4.6-1.4-9.2-2-14
			c-0.4-2.5-1.1-5.1-1-7.6c0.3-16.8,2.4-33.2,9.7-48.6c10.7-22,26.9-38,49.8-47.5c10.8-4.5,22.2-6.7,33.7-8
			c16.5-1.7,32,2.1,47.2,7.7c18.5,6.8,35.8,16.3,53.5,25.1c11.9,6.1,24.1,12,36.1,18.1c3.7,1.8,7.6,3.4,11.3,5.3
			c1.8,0.9,2.5-0.2,3.1-1.5c3.4-6.5,7-12.7,10.3-19.2c5.9-11.3,11.9-22.7,17.8-34c6.8-13.2,13.9-26.1,20.3-39.2
			c4-8.3,6.7-16.9,6.8-26.2c0.2-16.7-10.8-31.9-26.9-36.8c-11.5-3.4-22.7-2.7-33.2,3c-10.8,5.8-17.4,14.9-19.4,27
			c-1.9,11-0.3,21.6,5.1,31.6c4.4,7.9,11.2,12.9,19.9,15.2c5,1.3,10.1,1.9,15.1,2.9c3.8,0.7,4,1,2.3,4.2c-8,15.9-16,31.7-24,47.5
			c-2.2,4.6-2.5,4.7-7.4,3.4c-18.3-4.9-34.4-13.9-47.1-27.8c-10.4-11.3-18.1-24.4-22.5-39.2c-5.2-17.2-5.8-34.7-2.3-52.2
			c5.8-27.9,20.2-49.9,45-64.7c11.6-6.9,24.2-10.9,37.4-13.4c6.2-1.1,12.3-1.9,18.6-1.8c8,0.4,16,1.3,23.9,2.6
			c13.5,2.5,25.9,7.9,37.1,15.8c16.3,11.4,27.7,26.4,34.6,45c5.1,13.6,7,27.5,6.5,41.7c-0.4,9.7-2.9,19.2-6.2,28.5
			c-6.5,18.3-15.7,35.5-24.5,52.8c-9,17.8-18.2,35.6-27.4,53.2c-1.3,2.6-2.7,5.4-4.2,7.8c-1.2,2.1-0.7,3,1.4,4.1
			c13.2,6.7,26.2,13.5,39.4,20.2c16.7,8.6,33.4,17.4,50.2,25.8c9.1,4.6,18.5,8.1,28.7,8.1c17.2,0.1,33.4-9.9,38.4-27.9
			c3.4-12.5,2-24.6-5.7-35.4c-6.7-9.5-16.1-14.9-27.9-15.8c-8.6-0.7-17.1,0.2-25.3,3.4c-9.3,3.7-15.5,10.5-18.7,19.8
			c-1.7,5.2-2.4,10.6-3.5,15.9C376.9,344.8,376.7,346.4,376.3,348.3z"/>
	</g>
</g>
</svg>
