<?xml version="1.0" encoding="utf-8"?>
<!-- Generator: Adobe Illustrator 25.0.1, SVG Export Plug-In . SVG Version: 6.00 Build 0)  -->
<svg version="1.1" id="katman_1" xmlns="http://www.w3.org/2000/svg" xmlns:xlink="http://www.w3.org/1999/xlink" x="0px" y="0px"
	 viewBox="0 0 560 400" style="enable-background:new 0 0 560 400;" xml:space="preserve">
<style type="text/css">
	.st0{fill:#EF3D23;}
</style>
<g transform="matrix(1.12546 0 0 1.12546 163.515 65)">
	<path d="M90,230.4c-25.9-19.7-45.2-38.2-63.4-61c-10.4-13-26.7-37-26.6-39.2c0-0.4,3.5-3.2,7.6-6.2c14.2-10.3,21.1-19.7,24.6-33.2
		l2-8.2l-2.8-1.9c-4.3-3-17.4-16.5-17.4-18c0-0.9,3.9-1.8,12.5-3c6.8-1,15.3-2.7,18.7-4l6.3-2.2l0.1-9C51.7,30,56.2,18,64.8,8.8
		C68.7,4.6,75.4,0,77.4,0c0.3,0,1.9,2.6,3.5,5.7c4.6,9.1,8.7,14,14.3,17.3c6.7,3.8,9.9,3.8,16.6,0c5.6-3.3,9.7-8.2,14.3-17.2
		c1.6-3.2,3.2-5.8,3.5-5.8c2,0,8.7,4.6,12.6,8.8c8.6,9.2,13.1,21.2,13.2,35.7l0.1,9l6.3,2.2c3.4,1.3,11.9,3,18.7,4
		c8.6,1.2,12.5,2.1,12.5,3c0,1.5-13.1,15-17.4,18l-2.8,1.9l2,8.2c3.5,13.5,10.4,22.9,24.6,33.2c4.1,3,7.6,5.8,7.6,6.2
		c0.1,2.2-16.2,26.2-26.6,39.2c-18.5,23.1-37.2,41.1-62.6,60.3c-7.6,5.6-14.1,10.3-14.5,10.2C102.9,239.9,96.9,235.6,90,230.4
		L90,230.4z M100,222c3.1-2.5,3.6-2.5,7.1,0.1l2.9,2.1l6.9-5.1c7.1-5.3,10-8.1,8.5-8.1c-0.5-0.1-2.2-1.2-3.9-2.5l-3-2.5l11.5-10.8
		l11.4-10.8l-1.6-5.7c-0.8-3.1-1.2-5.7-0.8-5.7c0.5,0,3.4,3.5,6.6,7.7l5.8,7.7l6.4-7c9.5-10.4,22.5-26.7,30.2-38l6.8-10l-7.3-5.7
		c-4-3.1-8.9-7.6-10.9-10c-6.4-7.8-12.6-24-12.6-32.9c0-2.1-0.1-3.8-0.3-3.8s-2.4,0.7-4.9,1.5l-4.5,1.6l-0.6,21.2
		c-0.4,16.7-1,22.8-2.6,28.9c-3.7,14.4-13.7,31-26.2,43.8c-7.4,7.6-20.2,16.5-22.5,15.6c-3.6-1.4-14.2-9.4-19.5-14.8
		c-8.8-9-15.5-18.3-20.9-29.3c-6.9-14-7.9-19.3-8.7-44.2l-0.6-21.1l-4.1-1.6c-2.3-0.9-4.4-1.6-4.7-1.6c-0.4,0-0.9,2.8-1.2,6.2
		c-0.8,10.4-5.8,22.6-12.4,30.6c-1.9,2.4-6.8,6.8-10.8,10l-7.4,5.6l6.6,9.6c11.3,16.3,35,45,37.2,45c0.4,0,1.4-1.3,2.4-2.9
		c2-3.4,8.6-11.5,9.7-11.9c0.4-0.2,0.1,2.2-0.8,5.3l-1.6,5.6l5.2,5.2c2.8,2.9,7.8,7.5,11.1,10.2c3.3,2.8,6,5.5,6,6.1
		c0.1,0.6-1.5,2.2-3.5,3.6l-3.5,2.6l4.3,3.4c7.2,5.7,11.3,8.8,11.8,8.8C97.3,224,98.6,223.1,100,222L100,222z M122.5,173.9
		c3.3-3.5,7.7-8.6,9.7-11.4c3.8-5.3,11.2-19.5,10.2-19.5c-0.3,0-3.7,0.9-7.5,2.1c-6.2,1.9-7.2,2.5-9.4,6.3c-1.4,2.3-3.6,5.3-5,6.6
		l-2.5,2.3v-8.1c0-8.1,0-8.2,2.8-8.7c6.7-1.4,18.4-4.6,21.6-5.9c3-1.2,3.5-2.1,4.6-6.8c1.8-8.4,3-21.3,3-33.6
		c0-13.2,1.2-12.6-12.7-6.2c-10.6,4.9-16.2,8.8-25,17.4c-7.3,6.9-7.3,6.9-7.3,12.3v5.4l3.8-0.6c7.6-1.3,10.2-2.5,10.2-4.8
		c0-1.5,1.6-3.4,4.7-5.7c3.3-2.4,6-5.7,8.7-10.7c2.2-4,4.2-7.1,4.3-6.9c0.2,0.2-0.4,2.2-1.2,4.6c-2,5.7-1.9,6.1,1,5.4
		c2.4-0.6,2.5-0.4,1.9,2.7c-1.3,6.5-3.3,9.8-8.2,13.3c-2.8,2.1-6,5.5-7.5,8.3c-2.9,5.2-7.2,10.8-6.4,8.3c0.3-0.8,1.5-3.9,2.6-6.9
		l2.2-5.4l-2.9,0.6c-1.6,0.3-5.2,0.9-8.1,1.3l-5.1,0.7v57.8l5.8-3.9C113.9,182,119.2,177.4,122.5,173.9L122.5,173.9z M102,158.7
		v-28.4l-7.7-1.7c-4.3-0.9-10.4-2.7-13.5-4l-5.8-2.4l0.5,2.2c1.7,8.3,2.9,13.3,3.5,14.5c0.4,0.8,2.7,2.2,5.1,3.2l4.4,1.7l0.3,8.2
		c0.2,4.8-0.1,7.9-0.6,7.6c-2.5-1.5-10.5-14.9-12.7-21.2c-2.4-7-5.6-30.6-4.3-32C72.7,104.9,88,117.3,88,120c0,1,0.6,2.2,1.3,2.8
		c0.9,0.8,10.2,3.2,12.2,3.2c0.3,0,0.5-2.5,0.5-5.6c0-5.4-0.1-5.7-5.7-11.3c-8.9-8.8-23.1-17.5-36.7-22.5c-1.8-0.6-1.9,0-1.3,19.1
		c0.4,15.2,1,21.6,2.6,27.4c4.6,17.6,18.2,37.8,32.8,48.8c3.8,2.8,7.1,5.1,7.6,5.1C101.7,187,102,174.3,102,158.7z M121.5,94.2
		c7.8-5.2,15.1-8.7,31-15.1c7.2-2.8,15.5-6.6,18.5-8.3l5.5-3.2l-6.3-0.8c-7.7-0.9-16.6-3.3-20.8-5.8l-3.2-1.8l-3.7,5.4
		c-3.8,5.5-13.9,15.4-17.7,17.5c-2.7,1.4-1.9,0.2,4.7-7.6c6.7-7.9,9.9-13.6,13.1-23.1c2.2-6.5,2.5-9,2-14.2
		c-0.6-6.8-4.6-17-7.8-19.9c-1.9-1.7-2-1.6-4.6,1.7c-1.5,1.9-3.7,4.5-5,5.6l-2.3,2.2l2,3.3c2.6,4.6,3.4,9.1,2.6,14.7
		c-1,7.3-1.5,7.7-6.3,5.3c-2.2-1.1-7.4-4.7-11.6-8.1c-4.2-3.3-7.8-6-8.1-6s-3.9,2.7-8.1,6C89,47.1,81.3,52,79.6,52
		c-0.2,0-0.9-2.3-1.6-5c-1.5-6.1-0.7-12.4,2.1-16.9l2-3.3l-4.7-5.1c-2.6-2.9-4.9-5.4-5.1-5.6c-0.6-0.9-3.6,2.6-5.8,7
		c-3.6,7-5,16.2-3.6,23.1C64.7,54.6,71,66.6,78,74.8c3.4,4.1,6,7.6,5.7,7.8C82.2,84.1,65.4,67.3,62,61c-1-1.9-1.1-1.9-4.3,0
		c-4.2,2.5-13.1,4.9-20.9,5.8l-6.3,0.8l5.5,3.2c3,1.7,11.3,5.5,18.5,8.3c23.5,9.4,33.9,15.5,44,25.8l4.9,5.1l6.1-5.9
		C112.8,100.9,118.2,96.4,121.5,94.2z"/>
	<path class="st0" d="M123.2,120.9c0.3-3,0.7-3.4,3.6-3.7c2.4-0.2,3.2-0.8,3.2-2.2c0-1.9,3.6-4.7,4.7-3.6c1.4,1.4-3.5,8.3-7.5,10.5
		l-4.3,2.3L123.2,120.9z"/>
</g>
</svg>
