<?xml version="1.0" encoding="utf-8"?>
<!-- Generator: Adobe Illustrator 27.1.1, SVG Export Plug-In . SVG Version: 6.00 Build 0)  -->
<svg version="1.1" id="Layer_1" xmlns="http://www.w3.org/2000/svg" xmlns:xlink="http://www.w3.org/1999/xlink" x="0px" y="0px"
	 viewBox="0 0 800 800" style="enable-background:new 0 0 800 800;" xml:space="preserve">
<style type="text/css">
	.st0{fill:#FC0000;}
	.st1{fill:#FFFFFF;}
</style>
<g>
	<path class="st0" d="M401.09,255.08L6,50.94l62.01,345.44c5,27.88,20.56,52.17,43.79,68.38l92.75,64.7l6.46,83.36L400.15,749
		l189.27-135.37l7.52-85l94.68-67.83c22.69-16.26,37.87-40.35,42.75-67.84L795,50.9L401.1,255.07L401.09,255.08z M719.81,390.39
		c-4.2,23.67-17.27,44.41-36.8,58.4l-100.2,71.78l-7.52,85L400.17,730.81L225.2,604.84l-6.47-83.5l-98.48-68.7
		c-20-13.96-33.39-34.86-37.7-58.87L25.84,77.83L401.1,271.72L775.22,77.8L719.81,390.39z"/>
	<path d="M401.1,271.72L25.84,77.83l56.71,315.94c4.31,24.01,17.7,44.91,37.7,58.87l98.48,68.7l6.47,83.5l174.97,125.97
		l175.12-125.24l7.52-85l100.2-71.78c19.54-14,32.61-34.74,36.8-58.4L775.22,77.8L401.1,271.72L401.1,271.72z"/>
	<g>
		<polygon class="st1" points="201.66,330.85 190.08,200.2 70.22,137.96 93.5,266.37 		"/>
		<path class="st1" d="M214.89,477.07l-9.41-104.4l-104.14-61.26l12.94,73.52c2.67,15.19,11.22,28.71,23.8,37.63L214.89,477.07"/>
		<polygon class="st1" points="599.54,330.85 611.13,200.2 730.98,137.96 707.7,266.37 		"/>
		<path class="st1" d="M586.32,477.07l9.41-104.4l104.14-61.26l-12.94,73.52c-2.67,15.19-11.22,28.71-23.8,37.63l-76.82,54.52"/>
	</g>
	<path class="st1" d="M225,218.07l123.33,63.78l7,87.89l45.27-32.67l45.45,32.67l7-87.89l123.33-63.78l-32.67,369.44l-126.44,91
		l0.09-91.75c0.02-26.82,13.04-51.96,34.91-67.47l51.95-36.82l5.44-58.33l-108.54,64.84L291.7,424.14l5.44,58.33l52.19,36.67
		c22.17,15.58,35.31,41.02,35.19,68.12l-0.42,91.24l-126.44-91l-32.67-369.44L225,218.07z"/>
</g>
</svg>
