<?xml version="1.0" encoding="utf-8"?>
<!-- Generator: Adobe Illustrator 21.0.2, SVG Export Plug-In . SVG Version: 6.00 Build 0)  -->
<svg version="1.1" id="Layer_1" xmlns="http://www.w3.org/2000/svg" xmlns:xlink="http://www.w3.org/1999/xlink" x="0px" y="0px"
	 viewBox="0 0 381.9 381.9" style="enable-background:new 0 0 381.9 381.9;" xml:space="preserve">
<style type="text/css">
	.st0{fill:#fff;stroke:#FFFFFF;stroke-width:9.375000e-02;}
	.st1{fill:#EF2940;stroke:#EF2940;stroke-width:9.375000e-02;}
</style>
<path class="st0" d="M14.4,61.5c105.7,0.1,211.3,0,317,0c7.5,0.1,15.3-0.7,22.5,2c10.6,3.6,19.6,11.8,24.3,22
	c4.2,8.8,4.6,19,2.4,28.4c-109.3-0.1-218.6,0-328,0C39.8,96.4,27,79,14.4,61.5z"/>
<path class="st0" d="M0.1,143.9c30.8-0.4,61.5-0.1,92.3-0.2c51.9,0.1,103.8-0.1,155.8,0.1c-4.1,17.6-9.3,34.9-13.7,52.3
	c12.3,0,24.7,0,37,0c4.2,0,8.6-0.5,12.2-2.9c4.9-3,8-8.1,9.4-13.6c3.2-12,6.4-23.9,9.5-35.9c24.1-0.2,48.3-0.2,72.4,0
	c-4.5,18.5-9.7,36.9-14.5,55.4c-2.8,11.8-9.5,22.5-18,30.9c-10.8,10.8-25.4,18.8-41,18.5c-26.9-0.1-53.8,0-80.6,0
	c-6.4,23.9-12.6,47.9-19.2,71.8c-24.1,0-48.2,0.1-72.2,0c10.9-41.4,21.9-82.8,32.9-124.2c-41.5-0.1-83,0.2-124.5-0.1
	C25.3,178.5,12.3,161.5,0.1,143.9z"/>
<path class="st1" d="M57.2,222.4c71.1,0,0,0,71.1,0c-18.6,70.2,0,0-18.6,70.2C57.2,222.4,109.7,292.6,57.2,222.4z"/>
</svg>
