<svg width="1219" height="1411" viewBox="0 0 1219 1411" fill="none" xmlns="http://www.w3.org/2000/svg">
<path d="M1199.05 1004.87C1169.8 1002.01 1067.07 959.979 1096.32 836.723C1114.79 840.014 1127.83 843.075 1127.83 843.075L1181.9 780.345L994.862 149.059L968.57 483.807L826.003 0L804.378 396.524C804.378 396.524 564.465 105.417 191.187 423.282C229.343 406.826 298.688 399.091 385.813 441.12C168.576 480.944 -72.8153 623.321 20.685 1071.78C20.685 1071.78 32.1548 952.639 125.655 909.952C125.655 1123.88 310.749 1422.75 666.346 1410.64C220.437 1285.81 213.437 732.885 565.846 689.573C614.19 685.723 637.721 691.482 659.97 699.118C612.251 699.118 534.887 696.781 477.637 791.897C459.824 789.79 432.25 785.545 432.25 785.545L471.688 810.163C471.688 810.163 438.199 910.808 478.064 990.225C401.292 1003.82 378.812 1007.64 378.812 1007.64L542.939 1036.1C542.939 1036.1 575.574 1101.07 611.955 1137.6C572.09 1161.8 500.412 1203.43 500.412 1203.43L678.966 1172.43C678.966 1172.43 717.549 1289.63 833.726 1375.39C850.717 1368.61 894.395 1350.78 918.978 1332.08C871.061 1302.46 782.786 1239.6 711.601 1081.52C701.018 1088.34 665.393 1107.85 665.393 1107.85C665.393 1107.85 609.523 1059.44 573.799 973.67C555.559 976.961 519.079 984.696 519.079 984.696C519.079 984.696 479.641 892.97 516.121 800.388L507.839 798.479C507.839 798.479 559.996 702.31 685.013 713.138C694.544 713.138 675.778 769.517 596.278 767.608C596.278 767.608 590.856 817.272 682.121 829.054C682.121 836.723 646.2 866.969 597.856 861.966C634.763 994.799 837.013 933.945 900.015 1045.12C961.603 1153.73 893.968 1169 972.843 1291.3C984.28 1255.1 1026.91 1185.99 1129.64 1199.58C1129.64 1188.42 1135.65 1106.9 1219 1080.77C1215.29 1073.36 1193.66 1034.2 1199.05 1004.87ZM997.721 850.184C990.426 850.184 957.988 841.265 957.988 817.7C956.082 775.967 983.425 780.74 979.613 710.374C1023.82 733.412 1016.36 835.999 1039.56 892.081C1011.43 882.899 997.721 850.085 997.721 850.085V850.184Z" fill="#fff"/>
</svg>
